<mxfile host="Electron" modified="2023-04-15T12:03:54.773Z" agent="Mozilla/5.0 (Macintosh; Intel Mac OS X 10_15_7) AppleWebKit/537.36 (KHTML, like Gecko) draw.io/21.1.2 Chrome/106.0.5249.199 Electron/21.4.3 Safari/537.36" etag="cFcnHzMO2YXC54Xvx8zr" version="21.1.2" type="device">
  <diagram name="Use Case" id="44rhoL8vgVi-ukGq8_7j">
    <mxGraphModel dx="1244" dy="877" grid="1" gridSize="10" guides="1" tooltips="1" connect="1" arrows="1" fold="1" page="1" pageScale="1" pageWidth="827" pageHeight="1169" math="0" shadow="0">
      <root>
        <mxCell id="0" />
        <mxCell id="1" parent="0" />
        <mxCell id="Gp9bMBnCvlOxRC6RPChZ-1" value="Data Scientist" style="shape=umlActor;verticalLabelPosition=bottom;verticalAlign=top;html=1;outlineConnect=0;" vertex="1" parent="1">
          <mxGeometry x="90" y="270" width="30" height="60" as="geometry" />
        </mxCell>
        <mxCell id="Gp9bMBnCvlOxRC6RPChZ-3" value="DatGen" style="rounded=1;whiteSpace=wrap;html=1;verticalAlign=top;" vertex="1" parent="1">
          <mxGeometry x="220" y="100" width="250" height="550" as="geometry" />
        </mxCell>
        <mxCell id="Gp9bMBnCvlOxRC6RPChZ-4" value="Browse Available Data" style="ellipse;whiteSpace=wrap;html=1;" vertex="1" parent="1">
          <mxGeometry x="285" y="140" width="120" height="80" as="geometry" />
        </mxCell>
        <mxCell id="Gp9bMBnCvlOxRC6RPChZ-5" value="Insert Parameters for Synthetic Samples" style="ellipse;whiteSpace=wrap;html=1;" vertex="1" parent="1">
          <mxGeometry x="285" y="240" width="120" height="80" as="geometry" />
        </mxCell>
        <mxCell id="Gp9bMBnCvlOxRC6RPChZ-6" value="" style="edgeStyle=none;orthogonalLoop=1;jettySize=auto;html=1;rounded=0;exitX=0.5;exitY=0.5;exitDx=0;exitDy=0;exitPerimeter=0;entryX=0;entryY=0.5;entryDx=0;entryDy=0;" edge="1" parent="1" source="Gp9bMBnCvlOxRC6RPChZ-1" target="Gp9bMBnCvlOxRC6RPChZ-4">
          <mxGeometry width="100" relative="1" as="geometry">
            <mxPoint x="110" y="250" as="sourcePoint" />
            <mxPoint x="210" y="250" as="targetPoint" />
            <Array as="points" />
          </mxGeometry>
        </mxCell>
        <mxCell id="Gp9bMBnCvlOxRC6RPChZ-7" value="Receive Synthetic Data" style="ellipse;whiteSpace=wrap;html=1;" vertex="1" parent="1">
          <mxGeometry x="280" y="340" width="120" height="80" as="geometry" />
        </mxCell>
        <mxCell id="Gp9bMBnCvlOxRC6RPChZ-8" value="Compare Data Characteristics" style="ellipse;whiteSpace=wrap;html=1;" vertex="1" parent="1">
          <mxGeometry x="285" y="440" width="120" height="80" as="geometry" />
        </mxCell>
        <mxCell id="Gp9bMBnCvlOxRC6RPChZ-9" value="" style="edgeStyle=none;orthogonalLoop=1;jettySize=auto;html=1;rounded=0;exitX=0.5;exitY=0.5;exitDx=0;exitDy=0;exitPerimeter=0;entryX=0;entryY=0.5;entryDx=0;entryDy=0;" edge="1" parent="1" source="Gp9bMBnCvlOxRC6RPChZ-1" target="Gp9bMBnCvlOxRC6RPChZ-5">
          <mxGeometry width="100" relative="1" as="geometry">
            <mxPoint x="135" y="320" as="sourcePoint" />
            <mxPoint x="295" y="190" as="targetPoint" />
            <Array as="points" />
          </mxGeometry>
        </mxCell>
        <mxCell id="Gp9bMBnCvlOxRC6RPChZ-10" value="" style="edgeStyle=none;orthogonalLoop=1;jettySize=auto;html=1;rounded=0;entryX=0;entryY=0.5;entryDx=0;entryDy=0;exitX=0.5;exitY=0.5;exitDx=0;exitDy=0;exitPerimeter=0;" edge="1" parent="1" source="Gp9bMBnCvlOxRC6RPChZ-1" target="Gp9bMBnCvlOxRC6RPChZ-7">
          <mxGeometry width="100" relative="1" as="geometry">
            <mxPoint x="130" y="310" as="sourcePoint" />
            <mxPoint x="295" y="290" as="targetPoint" />
            <Array as="points" />
          </mxGeometry>
        </mxCell>
        <mxCell id="Gp9bMBnCvlOxRC6RPChZ-11" value="" style="edgeStyle=none;orthogonalLoop=1;jettySize=auto;html=1;rounded=0;entryX=0;entryY=0.5;entryDx=0;entryDy=0;exitX=0.5;exitY=0.5;exitDx=0;exitDy=0;exitPerimeter=0;" edge="1" parent="1" source="Gp9bMBnCvlOxRC6RPChZ-1" target="Gp9bMBnCvlOxRC6RPChZ-8">
          <mxGeometry width="100" relative="1" as="geometry">
            <mxPoint x="140" y="320" as="sourcePoint" />
            <mxPoint x="290" y="390" as="targetPoint" />
            <Array as="points" />
          </mxGeometry>
        </mxCell>
        <mxCell id="Gp9bMBnCvlOxRC6RPChZ-15" style="rounded=0;orthogonalLoop=1;jettySize=auto;html=1;exitX=0.5;exitY=0.5;exitDx=0;exitDy=0;exitPerimeter=0;entryX=0;entryY=0.5;entryDx=0;entryDy=0;" edge="1" parent="1" source="Gp9bMBnCvlOxRC6RPChZ-12" target="Gp9bMBnCvlOxRC6RPChZ-13">
          <mxGeometry relative="1" as="geometry" />
        </mxCell>
        <mxCell id="Gp9bMBnCvlOxRC6RPChZ-12" value="Data Engineer" style="shape=umlActor;verticalLabelPosition=bottom;verticalAlign=top;html=1;outlineConnect=0;" vertex="1" parent="1">
          <mxGeometry x="70" y="555" width="30" height="60" as="geometry" />
        </mxCell>
        <mxCell id="Gp9bMBnCvlOxRC6RPChZ-13" value="Exposing Data Assets to Dat Gen" style="ellipse;whiteSpace=wrap;html=1;" vertex="1" parent="1">
          <mxGeometry x="285" y="545" width="120" height="80" as="geometry" />
        </mxCell>
      </root>
    </mxGraphModel>
  </diagram>
</mxfile>
